<svg width="184" height="26" viewBox="0 0 184 26" fill="none" xmlns="http://www.w3.org/2000/svg">
<path d="M6.8981 20.3011C11.3136 20.3011 13.8341 17.8902 13.8341 14.3505C13.8341 11.2699 12.0906 9.5861 8.35732 8.91642L6.63279 8.59114C4.85141 8.26586 4.05548 7.67271 4.05548 6.2568C4.05548 4.86002 5.07882 4.0564 7.06866 4.0564C9.03955 4.0564 10.3093 4.84089 11.2189 5.98892L13.6067 3.71198C12.1096 1.91339 10.0439 0.956696 7.25817 0.956696C3.12689 0.956696 0.549574 3.11883 0.549574 6.46727C0.549574 9.5287 2.3499 11.3273 6.10217 11.9204L7.84565 12.1883C9.77863 12.5327 10.3661 13.2981 10.3661 14.5609C10.3661 16.149 9.24801 17.1823 7.10656 17.1823C5.19253 17.1823 3.61961 16.3787 2.3499 14.8862L0 17.1823C1.55397 19.0383 3.73331 20.3011 6.8981 20.3011ZM19.5952 19.9758H23.2148L24.9583 13.8147L25.9626 10.0071H26.0384L27.0807 13.8147L28.8621 19.9758H32.5196L36.3098 5.98892H33.164L31.7806 11.7482L30.6814 16.5509H30.5867L29.279 11.7482L27.6114 5.98892H24.5413L22.9116 11.7482L21.6419 16.5509H21.5281L20.448 11.7482L19.0456 5.98892H15.786L19.5952 19.9758ZM40.5548 3.96073C41.9382 3.96073 42.5446 3.23364 42.5446 2.23867V1.70292C42.5446 0.707956 41.9382 0 40.5548 0C39.1524 0 38.5649 0.707956 38.5649 1.70292V2.23867C38.5649 3.23364 39.1524 3.96073 40.5548 3.96073ZM38.8682 19.9758H42.2604V5.98892H38.8682V19.9758ZM46.8654 19.9758H50.2766V8.70594H53.1002V5.98892H50.2766V2.88922H53.1002V0.153071H50.6935C48.192 0.153071 46.8654 1.51158 46.8654 3.97986V5.98892H44.8377V8.70594H46.8654V19.9758ZM59.7899 19.9758H62.2345V17.2397H59.6004V8.72508H62.443V5.98892H59.6004V2.16213H56.5493V4.55388C56.5493 5.51057 56.2461 5.98892 55.2227 5.98892H54.1615V8.72508H56.2082V16.4169C56.2082 18.6939 57.4589 19.9758 59.7899 19.9758ZM75.3675 19.9758V12.858H80.1999C83.6111 12.858 85.6957 10.5428 85.6957 7.06042C85.6957 3.61631 83.6111 1.28197 80.1999 1.28197H71.8616V19.9758H75.3675ZM75.3675 4.36254H79.8778C81.2233 4.36254 82.0571 5.08963 82.0571 6.44814V7.67271C82.0571 9.05035 81.2233 9.79658 79.8778 9.79658H75.3675V4.36254ZM91.7031 20.3011C93.7877 20.3011 95.2848 19.3635 95.7396 17.565H95.9102C96.1186 19.0191 97.0093 19.9758 98.4685 19.9758H100.364V17.2397H98.9802V10.6576C98.9802 7.46224 96.9904 5.66365 93.2571 5.66365C90.4713 5.66365 88.8415 6.73515 87.8371 8.3424L89.8459 10.1793C90.5092 9.20342 91.4188 8.3998 93.0107 8.3998C94.811 8.3998 95.588 9.31823 95.588 10.8681V11.8822H93.2192C89.4479 11.8822 87.3065 13.2981 87.3065 16.1682C87.3065 18.6556 88.8984 20.3011 91.7031 20.3011ZM92.8591 17.8137C91.5325 17.8137 90.7555 17.2397 90.7555 16.1108V15.6707C90.7555 14.5609 91.6273 13.9486 93.4087 13.9486H95.588V15.8046C95.588 17.1057 94.3562 17.8137 92.8591 17.8137ZM108.986 13.3938L108.02 16.9144H107.868L106.959 13.3938L104.552 5.98892H101.179L106.144 20.6455L105.499 22.5972H103.017V25.3333H105.063C107.338 25.3333 108.323 24.4723 109.005 22.4632L114.577 5.98892H111.393L108.986 13.3938ZM123.275 19.9758H132.675C135.404 19.9758 137.45 17.6224 137.45 14.6183C137.45 11.423 135.063 10.2749 133.452 10.2558V10.0836C135.138 9.98792 136.768 8.91642 136.768 6.06546C136.768 3.17623 134.911 1.28197 131.86 1.28197H123.275V19.9758ZM126.781 11.9587H131.67C132.997 11.9587 133.793 12.7241 133.793 14.0252V14.9436C133.793 16.2447 132.997 16.9718 131.67 16.9718H126.781V11.9587ZM126.781 4.286H131.102C132.391 4.286 133.13 4.99396 133.13 6.2568V7.09869C133.13 8.32326 132.391 9.06949 131.102 9.06949H126.781V4.286ZM144.083 20.3011C146.149 20.3011 147.665 19.3635 148.12 17.565H148.271C148.48 19.0191 149.389 19.9758 150.849 19.9758H152.725V17.2397H151.36V10.6576C151.36 7.46224 149.37 5.66365 145.618 5.66365C142.832 5.66365 141.222 6.73515 140.217 8.3424L142.226 10.1793C142.889 9.20342 143.799 8.3998 145.391 8.3998C147.191 8.3998 147.949 9.31823 147.949 10.8681V11.8822H145.599C141.828 11.8822 139.687 13.2981 139.687 16.1682C139.687 18.6556 141.278 20.3011 144.083 20.3011ZM145.22 17.8137C143.894 17.8137 143.136 17.2397 143.136 16.1108V15.6707C143.136 14.5609 144.007 13.9486 145.789 13.9486H147.949V15.8046C147.949 17.1057 146.736 17.8137 145.22 17.8137ZM158.884 19.9758V10.7341C158.884 9.24169 160.248 8.47634 161.651 8.47634C163.261 8.47634 163.925 9.50957 163.925 11.4804V19.9758H167.317V11.136C167.317 7.65357 165.725 5.66365 162.901 5.66365C160.741 5.66365 159.585 6.83082 159.016 8.32326H158.884V5.98892H155.492V19.9758H158.884ZM171.088 19.9758H174.48V15.709L176.319 13.6999L179.881 19.9758H183.899L178.631 11.4038L183.406 5.98892H179.559L176.451 9.5861L174.613 12.0926H174.48V0.153071H171.088V19.9758Z" fill="white"/>
</svg>
