<svg width="28" height="28" viewBox="0 0 28 28" fill="none" xmlns="http://www.w3.org/2000/svg">
<path d="M23.7444 4.07475C21.1171 1.44747 17.6244 0 13.9091 0C6.23962 0 0 6.23993 0 13.9091C0 21.5783 6.23962 27.8182 13.9091 27.8182C21.5786 27.8182 27.8182 21.5786 27.8182 13.9091C27.8182 10.1947 26.3716 6.70202 23.7444 4.07475ZM13.9091 1.26202C17.2875 1.26202 20.4631 2.57782 22.852 4.96678C25.241 7.35574 26.5565 10.5317 26.5565 13.9097C26.5565 14.0822 26.5503 14.2534 26.5435 14.4243H21.7959V23.7861C21.2631 24.2125 20.6967 24.5953 20.1023 24.9307V12.0586H7.23335V24.6447C6.73296 24.3328 6.25488 23.9864 5.80256 23.6081V14.4243H1.27469C1.2669 14.2529 1.26258 14.0813 1.26171 13.9097C1.26171 6.93569 6.93538 1.26202 13.9091 1.26202ZM18.1582 25.8205C17.5416 26.0407 16.9087 26.2123 16.2653 26.3336V14.3718H18.1582V25.8205ZM11.3761 26.3018C10.7319 26.1699 10.0991 25.9875 9.48353 25.7562V14.3715H11.3761V26.3018ZM12.8483 26.5089V14.3718H14.7409V26.5271C14.4658 26.545 14.1888 26.5574 13.9094 26.5574C13.5515 26.5574 13.1985 26.5389 12.8483 26.5095V26.5089Z" fill="white"/>
<path d="M21.1332 9.42974L13.6992 6.59074L6.20251 9.42974V10.8494H21.1332V9.42974Z" fill="white"/>
</svg>
