<svg width="38" height="38" viewBox="0 0 38 38" fill="none" xmlns="http://www.w3.org/2000/svg">
<path d="M32.1247 5.56616C28.5702 1.97727 23.8447 0 18.8182 0C8.44184 0 0 8.52382 0 19C0 29.4762 8.44184 38 18.8182 38C29.1945 38 37.6364 29.4766 37.6364 19C37.6364 13.9262 35.6793 9.15504 32.1247 5.56616ZM18.8182 1.72393C23.3889 1.72393 27.6853 3.52133 30.9174 6.78469C34.1496 10.048 35.9293 14.3864 35.9293 19.0008C35.9293 19.2364 35.921 19.4704 35.9118 19.7038H29.4885V32.4921C28.7677 33.0746 28.0014 33.5975 27.1973 34.0556V16.4722H9.78629V33.665C9.10931 33.2389 8.46249 32.7657 7.85053 32.2489V19.7038H1.72458C1.71405 19.4697 1.70819 19.2353 1.70702 19.0008C1.70702 9.47424 9.38316 1.72393 18.8182 1.72393ZM24.5669 35.2712C23.7327 35.5719 22.8764 35.8063 22.006 35.9721V19.6321H24.5669V35.2712ZM15.3912 35.9286C14.5196 35.7484 13.6635 35.4992 12.8307 35.1834V19.6316H15.3912V35.9286ZM17.383 36.2115V19.6321H19.9435V36.2364C19.5713 36.2609 19.1966 36.2778 18.8186 36.2778C18.3343 36.2778 17.8568 36.2524 17.383 36.2123V36.2115Z" fill="white"/>
<path d="M28.5919 12.8812L18.5342 9.00305L8.39166 12.8812V14.8204H28.5919V12.8812Z" fill="white"/>
</svg>
