<svg width="136" height="19" viewBox="0 0 136 19" fill="none" xmlns="http://www.w3.org/2000/svg">
<path d="M5.0986 14.8616C8.36226 14.8616 10.2252 13.0967 10.2252 10.5054C10.2252 8.25021 8.93655 7.01758 6.17715 6.52733L4.9025 6.28921C3.58583 6.05108 2.99753 5.61686 2.99753 4.58034C2.99753 3.55781 3.75391 2.96951 5.22466 2.96951C6.68141 2.96951 7.61988 3.54381 8.29222 4.38424L10.0571 2.71739C8.95056 1.40071 7.42378 0.700357 5.36473 0.700357C2.31118 0.700357 0.406207 2.28316 0.406207 4.73441C0.406207 6.97556 1.73689 8.29223 4.5103 8.72645L5.79895 8.92255C7.22768 9.17468 7.6619 9.73496 7.6619 10.6594C7.6619 11.822 6.83548 12.5784 5.25268 12.5784C3.83796 12.5784 2.67536 11.9901 1.73689 10.8976L0 12.5784C1.14859 13.9371 2.75941 14.8616 5.0986 14.8616ZM14.4834 14.6235H17.1587L18.4474 10.1132L19.1898 7.32574H19.2458L20.0162 10.1132L21.3329 14.6235H24.0362L26.8377 4.38424H24.5125L23.49 8.60039L22.6776 12.1162H22.6075L21.641 8.60039L20.4084 4.38424H18.1392L16.9346 8.60039L15.9962 12.1162H15.9121L15.1137 8.60039L14.0772 4.38424H11.6679L14.4834 14.6235ZM29.9753 2.89948C30.9978 2.89948 31.446 2.36721 31.446 1.63884V1.24664C31.446 0.518264 30.9978 0 29.9753 0C28.9387 0 28.5045 0.518264 28.5045 1.24664V1.63884C28.5045 2.36721 28.9387 2.89948 29.9753 2.89948ZM28.7286 14.6235H31.2359V4.38424H28.7286V14.6235ZM34.6397 14.6235H37.1609V6.37325H39.248V4.38424H37.1609V2.11508H39.248V0.112057H37.4691C35.6202 0.112057 34.6397 1.10656 34.6397 2.91349V4.38424H33.1409V6.37325H34.6397V14.6235ZM44.1925 14.6235H45.9994V12.6204H44.0524V6.38726H46.1535V4.38424H44.0524V1.58281H41.7973V3.3337C41.7973 4.03406 41.5732 4.38424 40.8168 4.38424H40.0324V6.38726H41.5452V12.0181C41.5452 13.685 42.4696 14.6235 44.1925 14.6235ZM55.7064 14.6235V9.4128H59.2782C61.7995 9.4128 63.3403 7.71793 63.3403 5.16863C63.3403 2.64735 61.7995 0.938478 59.2782 0.938478H53.1151V14.6235H55.7064ZM55.7064 3.19363H59.0401C60.0346 3.19363 60.6509 3.7259 60.6509 4.72041V5.61686C60.6509 6.62538 60.0346 7.17166 59.0401 7.17166H55.7064V3.19363ZM67.7805 14.8616C69.3213 14.8616 70.4279 14.1752 70.7641 12.8586H70.8901C71.0442 13.9231 71.7025 14.6235 72.7811 14.6235H74.1818V12.6204H73.1593V7.80198C73.1593 5.46278 71.6885 4.14611 68.9291 4.14611C66.8701 4.14611 65.6655 4.93051 64.9231 6.10711L66.4078 7.4518C66.8981 6.73743 67.5704 6.14914 68.747 6.14914C70.0777 6.14914 70.652 6.82148 70.652 7.95606V8.69843H68.9011C66.1137 8.69843 64.5309 9.73496 64.5309 11.836C64.5309 13.657 65.7075 14.8616 67.7805 14.8616ZM68.635 13.0406C67.6545 13.0406 67.0802 12.6204 67.0802 11.794V11.4718C67.0802 10.6594 67.7245 10.2112 69.0412 10.2112H70.652V11.5699C70.652 12.5224 69.7415 13.0406 68.635 13.0406ZM80.5551 9.805L79.8407 12.3823H79.7286L79.0563 9.805L77.2774 4.38424H74.7841L78.454 15.1137L77.9777 16.5424H76.1428V18.5455H77.6556C79.3364 18.5455 80.0648 17.9151 80.5691 16.4444L84.6872 4.38424H82.334L80.5551 9.805ZM91.1164 14.6235H98.064C100.081 14.6235 101.594 12.9006 101.594 10.7015C101.594 8.36226 99.8289 7.52184 98.6383 7.50783V7.38176C99.8849 7.31173 101.09 6.52733 101.09 4.44026C101.09 2.32519 99.7168 0.938478 97.4617 0.938478H91.1164V14.6235ZM93.7077 8.75446H97.3216C98.3021 8.75446 98.8904 9.31475 98.8904 10.2672V10.9396C98.8904 11.8921 98.3021 12.4243 97.3216 12.4243H93.7077V8.75446ZM93.7077 3.1376H96.9014C97.8539 3.1376 98.4001 3.65586 98.4001 4.58034V5.19665C98.4001 6.09311 97.8539 6.63938 96.9014 6.63938H93.7077V3.1376ZM106.496 14.8616C108.023 14.8616 109.144 14.1752 109.48 12.8586H109.592C109.746 13.9231 110.418 14.6235 111.497 14.6235H112.884V12.6204H111.875V7.80198C111.875 5.46278 110.404 4.14611 107.631 4.14611C105.572 4.14611 104.381 4.93051 103.639 6.10711L105.124 7.4518C105.614 6.73743 106.286 6.14914 107.463 6.14914C108.793 6.14914 109.354 6.82148 109.354 7.95606V8.69843H107.617C104.829 8.69843 103.247 9.73496 103.247 11.836C103.247 13.657 104.423 14.8616 106.496 14.8616ZM107.337 13.0406C106.356 13.0406 105.796 12.6204 105.796 11.794V11.4718C105.796 10.6594 106.44 10.2112 107.757 10.2112H109.354V11.5699C109.354 12.5224 108.457 13.0406 107.337 13.0406ZM117.436 14.6235V7.85801C117.436 6.76545 118.444 6.20516 119.481 6.20516C120.671 6.20516 121.162 6.96155 121.162 8.40429V14.6235H123.669V8.15216C123.669 5.60286 122.492 4.14611 120.405 4.14611C118.809 4.14611 117.954 5.00055 117.534 6.09311H117.436V4.38424H114.929V14.6235H117.436ZM126.456 14.6235H128.964V11.4999L130.322 10.0291L132.956 14.6235H135.925L132.031 8.34826L135.561 4.38424H132.718L130.42 7.01758L129.062 8.85251H128.964V0.112057H126.456V14.6235Z" fill="white"/>
</svg>
